M48
; DRILL file {KiCad 7.0.10} date Sun Mar 10 15:02:11 2024
; FORMAT={-:-/ absolute / inch / decimal}
; #@! TF.CreationDate,2024-03-10T15:02:11-03:00
; #@! TF.GenerationSoftware,Kicad,Pcbnew,7.0.10
; #@! TF.FileFunction,Plated,1,2,PTH
FMAT,2
INCH
; #@! TA.AperFunction,Plated,PTH,ComponentDrill
T1C0.0079
; #@! TA.AperFunction,Plated,PTH,ComponentDrill
T2C0.0118
; #@! TA.AperFunction,Plated,PTH,ComponentDrill
T3C0.0157
%
G90
G05
T1
X8.2Y-2.6276
X8.2Y-2.6827
X8.2276Y-2.6
X8.2276Y-2.6541
X8.2276Y-2.7102
X8.2551Y-2.6276
X8.2551Y-2.6827
X8.2827Y-2.6
X8.2827Y-2.6541
X8.2827Y-2.7102
X8.3102Y-2.6276
X8.3102Y-2.6827
T2
X6.9673Y-0.85
T3
X6.8457Y-1.0217
X6.9244Y-1.0217
X6.9244Y-1.2185
X7.0031Y-1.0217
X7.0031Y-1.2185
X7.0819Y-1.0217
X7.0819Y-1.2185
X7.1606Y-1.0217
X7.1606Y-1.2185
X7.2394Y-1.0217
X7.2394Y-1.2185
X7.3181Y-1.0217
X7.3181Y-1.2185
X7.3969Y-1.0217
X7.3969Y-1.2185
X7.4756Y-1.0217
X7.4756Y-1.2185
X7.5543Y-1.0217
X7.5543Y-1.2185
M30
