%TF.GenerationSoftware,KiCad,Pcbnew,7.0.10*%
%TF.CreationDate,2024-03-10T15:02:06-03:00*%
%TF.ProjectId,Prueba de Componentes,50727565-6261-4206-9465-20436f6d706f,rev?*%
%TF.SameCoordinates,Original*%
%TF.FileFunction,Profile,NP*%
%FSLAX46Y46*%
G04 Gerber Fmt 4.6, Leading zero omitted, Abs format (unit mm)*
G04 Created by KiCad (PCBNEW 7.0.10) date 2024-03-10 15:02:06*
%MOMM*%
%LPD*%
G01*
G04 APERTURE LIST*
%TA.AperFunction,Profile*%
%ADD10C,0.200000*%
%TD*%
%TA.AperFunction,Profile*%
%ADD11C,0.100000*%
%TD*%
G04 APERTURE END LIST*
D10*
X167640000Y-13970000D02*
X245110000Y-13970000D01*
X245110000Y-93980000D01*
X167640000Y-93980000D01*
X167640000Y-13970000D01*
D11*
%TO.C,REF\u002A\u002A*%
X209165000Y-20602500D02*
X209165000Y-20352500D01*
X215015000Y-20602500D02*
X215015000Y-20352500D01*
X215990000Y-19702500D02*
X215990000Y-15862500D01*
X207790000Y-15850000D02*
X207790000Y-17552500D01*
X213190000Y-20602500D02*
X213190000Y-20402500D01*
X213390000Y-20802500D02*
X214815000Y-20802500D01*
X215665000Y-20152500D02*
X215990000Y-19702500D01*
X211790000Y-20402500D02*
X211790000Y-20602500D01*
X208560000Y-20152500D02*
X208190000Y-19702500D01*
X211590000Y-20802500D02*
X209365000Y-20802500D01*
X208965000Y-20152500D02*
X208560000Y-20152500D01*
X208190000Y-19702500D02*
X208190000Y-17552500D01*
X215215000Y-20152500D02*
X215665000Y-20152500D01*
X207790000Y-17552500D02*
X208190000Y-17552500D01*
X211990000Y-20202500D02*
X212990000Y-20202500D01*
X209165000Y-20352500D02*
G75*
G03*
X208965000Y-20152500I-200001J-1D01*
G01*
X214815000Y-20802500D02*
G75*
G03*
X215015000Y-20602500I0J200000D01*
G01*
X211990000Y-20202500D02*
G75*
G03*
X211790000Y-20402500I1J-200001D01*
G01*
X213190000Y-20602500D02*
G75*
G03*
X213390000Y-20802500I200000J0D01*
G01*
X213190000Y-20402500D02*
G75*
G03*
X212990000Y-20202500I-200000J0D01*
G01*
X211590000Y-20802500D02*
G75*
G03*
X211790000Y-20602500I-1J200001D01*
G01*
X209165000Y-20602500D02*
G75*
G03*
X209365000Y-20802500I200001J1D01*
G01*
X215215000Y-20152500D02*
G75*
G03*
X215015000Y-20352500I0J-200000D01*
G01*
%TD*%
M02*
